<svg width="1366" height="238" viewBox="0 0 1366 238" fill="none" xmlns="http://www.w3.org/2000/svg">
<path d="M194.076 200.323C194.076 86.2718 194.778 87.4777 -3 86.2718V237H1366V113.403H1178.45V175.201H1095.21V47.0825H942.763V113.403H820.907V188.767H677.488V30H453.333V200.323H194.076Z" fill="#6C63FF" stroke="#6C63FF"/>
<path d="M206.5 184.5C206.5 71 207.2 72.2 10 71V221H1375V98H1188V159.5H1105V32H953V98H831.5V173H688.5V15H465V184.5H206.5Z" fill="#6C63FF" fill-opacity="0.81" stroke="#6C63FF"/>
<path d="M220.5 170.5C220.5 57 221.2 58.2 24 57V207H1389V84H1202V145.5H1119V18H967V84H845.5V159H702.5V1H479V170.5H220.5Z" fill="#6C63FF" fill-opacity="0.69" stroke="#6C63FF"/>
</svg>
